# xmcd
#
# Track frame offsets: 
#        150
#        20218
#        43868
#        62327
#        76032
#        93711
#        113984
#        136282
#        154052
#        171155
#        194079
#        217549
#        233437
#        249248
#        276493
#        302460
#
# Disc length: 4412 seconds
#
# Revision: 0
# Processed by: cddbd v1.5.2PL0 Copyright (c) Steve Scherf et al.
# Submitted via: ExactAudioCopy v1.1
#
DISCID=d2113a10
DTITLE=Diverse - 13. Hamburger Gospel-Blues-Night
DYEAR=2016
DGENRE=Blues
TTITLE0=Intando emnandi (A perfect will)
TTITLE1=Summertime
TTITLE2=Wade in the Water
TTITLE3=Go down Moses
TTITLE4=Dreaming of the City
TTITLE5=Onokubongwa (Whose worthy of Praise)
TTITLE6=Oh happy Day
TTITLE7=Pata Pata
TTITLE8=Cry cry Baby
TTITLE9=Sweet love
TTITLE10=Hey Hey Hey
TTITLE11=Let's work together
TTITLE12=Mack the Knife
TTITLE13=Suzie Q
TTITLE14=Mojo-Boogie
TTITLE15=Everybody needs Somebody
EXTD=
EXTT0=
EXTT1=
EXTT2=
EXTT3=
EXTT4=
EXTT5=
EXTT6=
EXTT7=
EXTT8=
EXTT9=
EXTT10=
EXTT11=
EXTT12=
EXTT13=
EXTT14=
EXTT15=
PLAYORDER=
